<svg
      width="60"
      height="44"
      viewBox="0 0 60 44"
      fill="none"
      xmlns="http://www.w3.org/2000/svg"
    >
      <path
        d="M8.19796 40.0034H3.66423V39.0991H2.75996V38.1948H1.85569V37.2905H4.5685V38.1948H7.73963V36.3801H4.5685V35.4758H2.75996V34.5715H1.85569V32.7568H2.75996V31.8525H3.66423V30.9483H8.19796V31.8525H9.10223V32.7568H10.0065V33.6611H7.2875V32.7568H4.11636V34.5715H7.2875V35.4758H9.10223V36.3801H10.0065V38.1948H9.10223V39.0991H8.19796V40.0034ZM13.6236 40.0034H11.815V27.3188H13.6236V31.8525H14.5278V30.9483H17.699V31.8525H18.6095V32.7568H19.5137V40.0034H17.699V33.6611H16.7947V32.7568H14.5278V33.6611H13.6236V40.0034ZM26.7603 40.0034H23.137V39.0991H22.2327V38.1948H21.3285V36.3801H22.2327V35.4758H24.0413V34.5715H27.6707V33.6611H26.7603V32.7568H24.0413V33.6611H21.3285V32.7568H22.2327V31.8525H23.137V30.9483H27.6707V31.8525H28.575V32.7568H29.4793V40.0034H27.6707V39.0991H26.7603V40.0034ZM23.5891 38.1948H26.7603V37.2905H27.6707V35.4758H26.7603V36.3801H23.5891V38.1948ZM36.7196 40.0034H33.0963V39.0991H32.1921V38.1948H31.2878V32.7568H32.1921V31.8525H33.0963V30.9483H36.7196V31.8525H37.6301V27.3188H39.4386V40.0034H37.6301V39.0991H36.7196V40.0034ZM34.0006 38.1948H36.7196V37.2905H37.6301V33.6611H36.7196V32.7568H34.0006V33.6611H33.0963V37.2905H34.0006V38.1948ZM47.5894 40.0034H43.0557V39.0991H42.1514V38.1948H41.2472V32.7568H42.1514V31.8525H43.0557V30.9483H47.5894V31.8525H48.4937V32.7568H49.398V35.9279H43.0557V37.2905H43.96V38.1948H46.679V37.2905H49.398V38.1948H48.4937V39.0991H47.5894V40.0034ZM43.0557 34.5715H47.5894V33.6611H46.679V32.7568H43.96V33.6611H43.0557V34.5715Z"
        fill="black"
      />
      <path
        d="M53.4796 40.0034H51.6648V32.3047H50.3084V30.9483H51.6648V28.2293H52.5691V27.3188H55.2881V29.1335H53.4796V30.9483H55.2881V32.3047H53.4796V40.0034ZM58.4654 29.5857H56.6569V27.7771H58.4654V29.5857ZM58.4654 40.0034H56.6569V30.9483H58.4654V40.0034Z"
        fill="black"
        fill-opacity="0.4"
      />
      <path
        d="M11 0H34V8H37V0H60V23H37V12H34V23H11V12H4V19H0V8H11V0Z"
        fill="black"
      />
      <path d="M30 5H26V13H30V5Z" fill="white" />
      <path d="M56 5H52V13H56V5Z" fill="white" />
    </svg>